<svg xmlns="http://www.w3.org/2000/svg" version="1.1" xmlns:xlink="http://www.w3.org/1999/xlink" xmlns:svgjs="http://svgjs.com/svgjs" width="512" height="512" x="0" y="0" viewBox="0 0 512 512" style="enable-background:new 0 0 512 512" xml:space="preserve"><defs><linearGradient xmlns="http://www.w3.org/2000/svg" id="SVGID_1_" gradientUnits="userSpaceOnUse" x1="214.788" x2="214.788" y1="512" y2="82.14"><stop offset="0" stop-color="#5558ff"></stop><stop offset="1" stop-color="#00c0ff"></stop></linearGradient><linearGradient xmlns="http://www.w3.org/2000/svg" id="SVGID_2_" gradientUnits="userSpaceOnUse" x1="392" x2="392" y1="240" y2="0"><stop offset="0" stop-color="#addcff"></stop><stop offset=".5028" stop-color="#eaf6ff"></stop><stop offset="1" stop-color="#eaf6ff"></stop></linearGradient></defs><g><linearGradient xmlns="http://www.w3.org/2000/svg" id="SVGID_1_" gradientUnits="userSpaceOnUse" x1="214.788" x2="214.788" y1="512" y2="82.14"><stop offset="0" stop-color="#5558ff"></stop><stop offset="1" stop-color="#00c0ff"></stop></linearGradient><linearGradient xmlns="http://www.w3.org/2000/svg" id="SVGID_2_" gradientUnits="userSpaceOnUse" x1="392" x2="392" y1="240" y2="0"><stop offset="0" stop-color="#addcff"></stop><stop offset=".5028" stop-color="#eaf6ff"></stop><stop offset="1" stop-color="#eaf6ff"></stop></linearGradient><g xmlns="http://www.w3.org/2000/svg" id="Phone_Call_4_"><g><g><path d="m429.354 419.719c-1.333-13.477-8.555-25.518-19.819-33.032l-76.362-50.903c-17.827-11.88-41.66-9.478-56.792 5.625l-24.404 24.609c-5.552 1.934-31.23-8.95-64.292-42.026-33.076-33.091-43.813-58.55-42.407-63.618l25.034-25.034c15.117-15.117 17.49-39.009 5.625-56.792l-50.903-76.362c-7.515-11.265-19.556-18.486-33.032-19.819-13.506-1.348-26.66 3.398-36.226 12.964l-37.764 37.764c-51.753 51.753 15.645 165.483 105.381 255.234 61.006 61.006 194.508 166.179 255.234 105.381l37.764-37.764c9.565-9.552 14.296-22.765 12.963-36.227z" fill="url(&quot;#SVGID_1_&quot;)" data-original="url(#SVGID_1_)"></path></g></g><g><g><path d="m287 0c-8.291 0-15 6.709-15 15s6.709 15 15 15c107.52 0 195 87.48 195 195 0 8.291 6.709 15 15 15s15-6.709 15-15c0-124.072-100.928-225-225-225zm0 60c-8.291 0-15 6.709-15 15s6.709 15 15 15c74.443 0 135 60.557 135 135 0 8.291 6.709 15 15 15s15-6.709 15-15c0-90.981-74.019-165-165-165zm0 60c-8.291 0-15 6.709-15 15s6.709 15 15 15c41.353 0 75 33.647 75 75 0 8.291 6.709 15 15 15s15-6.709 15-15c0-57.891-47.109-105-105-105zm0 60c-8.291 0-15 6.709-15 15s6.709 15 15 15c8.276 0 15 6.724 15 15 0 8.291 6.709 15 15 15s15-6.709 15-15c0-24.814-20.186-45-45-45z" fill="url(&quot;#SVGID_2_&quot;)" data-original="url(#SVGID_2_)"></path></g></g></g></g></svg>